<?xml version="1.0" encoding="iso-8859-1"?>
<!-- Generator: Adobe Illustrator 18.0.0, SVG Export Plug-In . SVG Version: 6.00 Build 0)  -->
<!DOCTYPE svg PUBLIC "-//W3C//DTD SVG 1.1//EN" "http://www.w3.org/Graphics/SVG/1.1/DTD/svg11.dtd">
<svg version="1.1" id="Capa_1" xmlns="http://www.w3.org/2000/svg" xmlns:xlink="http://www.w3.org/1999/xlink" x="0px" y="0px"
	 viewBox="0 0 512 512" style="enable-background:new 0 0 512 512;" xml:space="preserve">
<path d="M256,0C114.615,0,0,114.615,0,256s114.615,256,256,256s256-114.615,256-256S397.385,0,256,0z M280.875,269.313l-96,64
	C182.199,335.094,179.102,336,176,336c-2.59,0-5.184-0.625-7.551-1.891C163.246,331.32,160,325.898,160,320V192
	c0-5.898,3.246-11.32,8.449-14.109c5.203-2.773,11.516-2.484,16.426,0.797l96,64C285.328,245.656,288,250.648,288,256
	S285.328,266.344,280.875,269.313z M368,320c0,8.836-7.164,16-16,16h-16c-8.836,0-16-7.164-16-16V192c0-8.836,7.164-16,16-16h16
	c8.836,0,16,7.164,16,16V320z"/>
<g>
</g>
<g>
</g>
<g>
</g>
<g>
</g>
<g>
</g>
<g>
</g>
<g>
</g>
<g>
</g>
<g>
</g>
<g>
</g>
<g>
</g>
<g>
</g>
<g>
</g>
<g>
</g>
<g>
</g>
</svg>
